<svg id="Calque_1" data-name="Calque 1" xmlns="http://www.w3.org/2000/svg" xmlns:xlink="http://www.w3.org/1999/xlink" viewBox="0 0 72 63"><defs><style>.cls-1{fill:url(#Dégradé_sans_nom_80);}</style><linearGradient id="Dégradé_sans_nom_80" x1="275.36" y1="431.38" x2="318.85" y2="387.89" gradientUnits="userSpaceOnUse"><stop offset="0" stop-color="#704c95"/><stop offset="1" stop-color="#9e84bc"/></linearGradient></defs><title>Hearth B</title><path class="cls-1" d="M313.6,393.13a14.89,14.89,0,0,1,10.63,4.38l1.49,1.49a15.1,15.1,0,0,1,0,21.27L322,424,297.1,448.89,272.22,424l-3.73-3.74a15,15,0,0,1,0-21.27l1.48-1.49a15.1,15.1,0,0,1,21.27,0l3.74,3.74,2.12,2.12,2.12-2.12,3.74-3.74a14.93,14.93,0,0,1,10.64-4.38m0-3a18,18,0,0,0-12.76,5.26l-3.74,3.74-3.74-3.74a18.09,18.09,0,0,0-25.51,0l-1.49,1.49a18.1,18.1,0,0,0,0,25.51l3.74,3.74,27,27,27-27,3.74-3.74a18.08,18.08,0,0,0,0-25.51l-1.49-1.49a18,18,0,0,0-12.75-5.26Z" transform="translate(-261.1 -390.13)"/></svg>