<svg id="Calque_1" data-name="Calque 1" xmlns="http://www.w3.org/2000/svg" xmlns:xlink="http://www.w3.org/1999/xlink" viewBox="0 0 73.61 75"><defs><style>.cls-1,.cls-2{fill:none;stroke-miterlimit:10;stroke-width:3px;}.cls-1{stroke-linecap:round;stroke:url(#Dégradé_sans_nom_9);}.cls-2{stroke:url(#Dégradé_sans_nom_9-2);}</style><linearGradient id="Dégradé_sans_nom_9" x1="262.24" y1="452.58" x2="324.81" y2="390.01" gradientUnits="userSpaceOnUse"><stop offset="0" stop-color="#5b9353"/><stop offset="1" stop-color="#95c11f"/></linearGradient><linearGradient id="Dégradé_sans_nom_9-2" x1="286.79" y1="437.51" x2="319.22" y2="405.07" xlink:href="#Dégradé_sans_nom_9"/></defs><title>Logout W</title><path class="cls-1" d="M325,406.91v-9.62a12,12,0,0,0-12-12H274a12,12,0,0,0-12,12v48a12,12,0,0,0,12,12h39a12,12,0,0,0,12-12V436" transform="translate(-260.53 -383.79)"/><path class="cls-2" d="M331.67,419.72a1.75,1.75,0,0,1,0,3.14l-22.28,14.86c-1.3.86-2.36.3-2.36-1.26v-3.33a2.85,2.85,0,0,0-2.84-2.84H282.86a2.83,2.83,0,0,1-2.83-2.83V415.13a2.84,2.84,0,0,1,2.83-2.84h21.33a2.84,2.84,0,0,0,2.84-2.83v-3.33c0-1.56,1.06-2.13,2.36-1.27Z" transform="translate(-260.53 -383.79)"/></svg>