<svg id="Calque_1" data-name="Calque 1" xmlns="http://www.w3.org/2000/svg" xmlns:xlink="http://www.w3.org/1999/xlink" viewBox="0 0 75 75"><defs><style>.cls-1,.cls-10,.cls-2,.cls-3,.cls-4,.cls-5,.cls-6,.cls-7,.cls-8,.cls-9{fill:none;stroke-linecap:round;stroke-linejoin:round;}.cls-1,.cls-2,.cls-3,.cls-4,.cls-5,.cls-6{stroke-width:3px;}.cls-1{stroke:url(#Dégradé_sans_nom_53);}.cls-2{stroke:url(#Dégradé_sans_nom_53-2);}.cls-3{stroke:url(#Dégradé_sans_nom_53-3);}.cls-4{stroke:url(#Dégradé_sans_nom_53-4);}.cls-5{stroke:url(#Dégradé_sans_nom_53-5);}.cls-6{stroke:url(#Dégradé_sans_nom_53-6);}.cls-10,.cls-7,.cls-8,.cls-9{stroke-width:5px;}.cls-7{stroke:url(#Dégradé_sans_nom_53-7);}.cls-8{stroke:url(#Dégradé_sans_nom_53-8);}.cls-9{stroke:url(#Dégradé_sans_nom_53-9);}.cls-10{stroke:url(#Dégradé_sans_nom_53-10);}</style><linearGradient id="Dégradé_sans_nom_53" x1="261.71" y1="456.52" x2="320.66" y2="397.57" gradientUnits="userSpaceOnUse"><stop offset="0" stop-color="#704c95"/><stop offset="0.25" stop-color="#77549b"/><stop offset="0.65" stop-color="#896bab"/><stop offset="1" stop-color="#9e84bc"/></linearGradient><linearGradient id="Dégradé_sans_nom_53-2" x1="45.44" y1="29.56" x2="56.56" y2="18.44" xlink:href="#Dégradé_sans_nom_53"/><linearGradient id="Dégradé_sans_nom_53-3" x1="31.94" y1="47.56" x2="52.06" y2="27.44" xlink:href="#Dégradé_sans_nom_53"/><linearGradient id="Dégradé_sans_nom_53-4" x1="31.94" y1="56.56" x2="52.06" y2="36.44" xlink:href="#Dégradé_sans_nom_53"/><linearGradient id="Dégradé_sans_nom_53-5" x1="31.94" y1="65.56" x2="52.06" y2="45.44" xlink:href="#Dégradé_sans_nom_53"/><linearGradient id="Dégradé_sans_nom_53-6" x1="31.94" y1="74.56" x2="52.06" y2="54.44" xlink:href="#Dégradé_sans_nom_53"/><linearGradient id="Dégradé_sans_nom_53-7" x1="13.23" y1="39.27" x2="16.77" y2="35.73" xlink:href="#Dégradé_sans_nom_53"/><linearGradient id="Dégradé_sans_nom_53-8" x1="13.23" y1="48.27" x2="16.77" y2="44.73" xlink:href="#Dégradé_sans_nom_53"/><linearGradient id="Dégradé_sans_nom_53-9" x1="13.23" y1="66.27" x2="16.77" y2="62.73" xlink:href="#Dégradé_sans_nom_53"/><linearGradient id="Dégradé_sans_nom_53-10" x1="13.23" y1="57.27" x2="16.77" y2="53.73" xlink:href="#Dégradé_sans_nom_53"/></defs><title>Quizz B</title><path class="cls-1" d="M266.77,385.13a5.68,5.68,0,0,0-5.67,5.67v60.66a5.68,5.68,0,0,0,5.67,5.67h60.66a5.68,5.68,0,0,0,5.67-5.67V417.8a15.74,15.74,0,0,0-4-9.68l-19-19a15.74,15.74,0,0,0-9.68-4Z" transform="translate(-259.6 -383.63)"/><polygon class="cls-2" points="46.5 10.5 46.5 28.5 64.5 28.5 46.5 10.5"/><line class="cls-3" x1="24" y1="37.5" x2="60" y2="37.5"/><line class="cls-4" x1="24" y1="46.5" x2="60" y2="46.5"/><line class="cls-5" x1="24" y1="55.5" x2="60" y2="55.5"/><line class="cls-6" x1="24" y1="64.5" x2="60" y2="64.5"/><line class="cls-7" x1="15" y1="37.5" x2="15" y2="37.5"/><line class="cls-8" x1="15" y1="46.5" x2="15" y2="46.5"/><line class="cls-9" x1="15" y1="64.5" x2="15" y2="64.5"/><line class="cls-10" x1="15" y1="55.5" x2="15" y2="55.5"/></svg>