<svg id="Calque_1" data-name="Calque 1" xmlns="http://www.w3.org/2000/svg" xmlns:xlink="http://www.w3.org/1999/xlink" viewBox="0 0 57.11 57.11"><defs><style>.cls-1,.cls-2,.cls-3{fill:none;stroke-miterlimit:10;stroke-width:3px;}.cls-1{stroke:url(#Dégradé_sans_nom_114);}.cls-2{stroke:url(#Dégradé_sans_nom_114-2);}.cls-3{stroke:url(#Dégradé_sans_nom_114-3);}</style><linearGradient id="Dégradé_sans_nom_114" x1="285.56" y1="436.4" x2="313.14" y2="408.82" gradientUnits="userSpaceOnUse"><stop offset="0" stop-color="#704c95"/><stop offset="0.51" stop-color="#724e96"/><stop offset="0.69" stop-color="#77559b"/><stop offset="0.82" stop-color="#8160a3"/><stop offset="0.92" stop-color="#8f71af"/><stop offset="1" stop-color="#9e84bc"/></linearGradient><linearGradient id="Dégradé_sans_nom_114-2" x1="1124.54" y1="2033.04" x2="1124.54" y2="2033.04" gradientTransform="translate(963.79 -1815.61) rotate(45)" xlink:href="#Dégradé_sans_nom_114"/><linearGradient id="Dégradé_sans_nom_114-3" x1="1124.56" y1="2033.06" x2="1124.56" y2="2033.06" gradientTransform="translate(963.79 -1815.61) rotate(45)" xlink:href="#Dégradé_sans_nom_114"/></defs><title>Search B</title><path class="cls-1" d="M303.6,420.82l-.84,1.31a56,56,0,0,1-4.08,4.07l-1.32.78a18,18,0,1,1,6.36-6.36h0l.51.51,3.52,3.52,3.07,3.07,4,4,7.55,7.55c2.2,2.2,2.57,5.44.82,7.19s-5,1.37-7.19-.83L302.39,432l-4.52-4.52-.51-.52" transform="translate(-268.71 -391.98)"/><path class="cls-2" d="M321.39,417.13" transform="translate(-268.71 -391.98)"/><path class="cls-3" d="M321.39,417.16" transform="translate(-268.71 -391.98)"/></svg>