<svg id="Calque_1" data-name="Calque 1" xmlns="http://www.w3.org/2000/svg" xmlns:xlink="http://www.w3.org/1999/xlink" viewBox="0 0 57.11 57.11"><defs><style>.cls-1,.cls-2,.cls-3{fill:none;stroke-miterlimit:10;stroke-width:3px;}.cls-1{stroke:url(#Dégradé_sans_nom_9);}.cls-2{stroke:url(#Dégradé_sans_nom_9-2);}.cls-3{stroke:url(#Dégradé_sans_nom_9-3);}</style><linearGradient id="Dégradé_sans_nom_9" x1="268.35" y1="420.53" x2="325.45" y2="420.53" gradientUnits="userSpaceOnUse"><stop offset="0" stop-color="#5b9353"/><stop offset="1" stop-color="#95c11f"/></linearGradient><linearGradient id="Dégradé_sans_nom_9-2" x1="1124.28" y1="2033.3" x2="1124.28" y2="2033.3" gradientTransform="translate(963.79 -1815.61) rotate(45)" xlink:href="#Dégradé_sans_nom_9"/><linearGradient id="Dégradé_sans_nom_9-3" x1="1124.3" y1="2033.32" x2="1124.3" y2="2033.32" gradientTransform="translate(963.79 -1815.61) rotate(45)" xlink:href="#Dégradé_sans_nom_9"/></defs><title>Search W</title><path class="cls-1" d="M303.23,420.82l-.83,1.31a56.19,56.19,0,0,1-4.09,4.07L297,427a18,18,0,1,1,6.36-6.36h0l.51.51,3.52,3.52,3.07,3.07,4,4,7.55,7.55c2.2,2.2,2.58,5.44.83,7.19s-5,1.37-7.19-.83L302,432l-4.52-4.52L297,427" transform="translate(-268.35 -391.98)"/><path class="cls-2" d="M321,417.13" transform="translate(-268.35 -391.98)"/><path class="cls-3" d="M321,417.16" transform="translate(-268.35 -391.98)"/></svg>