<svg id="Calque_1" data-name="Calque 1" xmlns="http://www.w3.org/2000/svg" xmlns:xlink="http://www.w3.org/1999/xlink" viewBox="0 0 75 75"><defs><style>.cls-1,.cls-2{fill:none;stroke-miterlimit:10;stroke-width:3px;}.cls-1{stroke:url(#Dégradé_sans_nom_99);}.cls-2{stroke:url(#Dégradé_sans_nom_99-2);}</style><linearGradient id="Dégradé_sans_nom_99" x1="3.96" y1="71.04" x2="71.04" y2="3.96" gradientUnits="userSpaceOnUse"><stop offset="0" stop-color="#5b9353"/><stop offset="1" stop-color="#95c11f"/></linearGradient><linearGradient id="Dégradé_sans_nom_99-2" x1="285.1" y1="442.22" x2="326.95" y2="400.37" xlink:href="#Dégradé_sans_nom_99"/></defs><title>Sharing W</title><rect class="cls-1" x="1.5" y="1.5" width="72" height="72" rx="12"/><path class="cls-2" d="M287.51,418.27a8.87,8.87,0,0,1,.52,3,9.14,9.14,0,0,1-.52,3l20,10a9,9,0,1,1-1.49,5,8.87,8.87,0,0,1,.52-3l-20-10a9,9,0,1,1,0-9.93l20-10a9,9,0,1,1,1,1.93Z" transform="translate(-259.53 -383.79)"/></svg>