<svg xmlns="http://www.w3.org/2000/svg" viewBox="0 0 67.76 114.9"><defs><style>.cls-1,.cls-2{fill:none;stroke:#353533;stroke-miterlimit:10;stroke-width:2px;}.cls-2{stroke-linecap:round;}.cls-3{fill:#353533;}.cls-4{fill:#85c174;}.cls-5{fill:#66b659;}.cls-6{fill:#62ab55;}.cls-7{fill:#70b966;}.cls-8{fill:#70af63;}.cls-9{fill:#5d9354;}</style></defs><title>logo version 3</title><g id="Calque_1" data-name="Calque 1"><path class="cls-1" d="M288,531h7.54s7.54,0,7.54-8.18c0-3.57,0-.79,0-9.79s17.81-17.72,17.81-36.18c0-25.54-19.6-35.85-32.88-35.85" transform="translate(-254.12 -440)"/><line class="cls-2" x1="42.97" y1="90.79" x2="24.79" y2="95.81"/><line class="cls-2" x1="42.97" y1="94.99" x2="24.79" y2="100.01"/><line class="cls-2" x1="42.97" y1="99.29" x2="24.79" y2="104.31"/><line class="cls-2" x1="42.97" y1="103.49" x2="24.79" y2="108.51"/><path class="cls-2" d="M297.09,547.79l-11.24,3.11" transform="translate(-254.12 -440)"/><path class="cls-3" d="M293.29,553.73a3,3,0,0,1-2.21,1.17h-6.16a3,3,0,0,1-2.21-1.17l-3-4.47c-.43-.65-.15-1.18.63-1.18h15.34c.78,0,1.06.53.63,1.18Z" transform="translate(-254.12 -440)"/><line class="cls-2" x1="27.36" y1="91.18" x2="24.79" y2="91.89"/><path class="cls-1" d="M288,531h-7.54s-7.54,0-7.54-8.18c0-3.57,0-.79,0-9.79s-17.81-17.72-17.81-36.18c0-25.54,19.6-35.85,32.88-35.85" transform="translate(-254.12 -440)"/></g><g id="Calque_3_-_copie" data-name="Calque 3 - copie"><g id="Calque_8" data-name="Calque 8"><g id="Calque_9" data-name="Calque 9"><path class="cls-4" d="M291,477.54c6.57-8.66,21.53-3.52,23.05-3.11,1.79.48-.93,21.12-21.94,19.23-1.79-2,4.49-11,4.49-11L295,484l-1.77,2-1.54,2.15-.68,1.25S288.93,480.28,291,477.54Z" transform="translate(-254.12 -440)"/></g><path class="cls-5" d="M290.16,478.3c6.56-8.66,21.53-3.52,23-3.11,1.8.48-.93,21.11-21.94,19.23-1.79-2,4.49-11,4.49-11l-1.59,1.36-1.76,2-1.54,2.14-.68,1.26S288.08,481,290.16,478.3Z" transform="translate(-254.12 -440)"/><g id="Calque_10" data-name="Calque 10"><path class="cls-6" d="M306.1,473.58c-1.32-.28,2.59.42,3.65.67,1.79.41,3.06.83,3.45.94,1.75.47-.79,20-20.3,19.34,0,0,17.64-2.75,19.25-17.59A14.35,14.35,0,0,0,306.1,473.58Z" transform="translate(-254.12 -440)"/></g></g><g id="Calque_7" data-name="Calque 7"><path class="cls-4" d="M290.35,486.71c3.83-30.57-23.6-22.95-25.75-22.53-1.94.37-1.18,25.76,21.08,25.94,2.1-2.25-3.59-13.86-3.59-13.86l1.71,1.84,1.88,2.43,1.47,2.54,2.36,5.45A2.77,2.77,0,0,0,290.35,486.71Z" transform="translate(-254.12 -440)"/><path class="cls-7" d="M291.53,488c3.84-30.58-23.6-23-25.75-22.54-1.93.38-1.17,25.76,21.09,25.95,2.09-2.25-3.59-13.87-3.59-13.87l1.53,1.85,1.65,2.6,1.4,2.78.59,1.6.87,2.73.33,1.85,1.05-1.14A2.73,2.73,0,0,0,291.53,488Z" transform="translate(-254.12 -440)"/><g id="Calque_6" data-name="Calque 6"><path class="cls-8" d="M291.53,488c3.84-30.58-23.6-23-25.75-22.54a43.13,43.13,0,0,1,17.5,12.08l1.53,1.85,1.65,2.6,1.4,2.78.59,1.6.87,2.73.33,1.85,1.05-1.14A2.73,2.73,0,0,0,291.53,488Z" transform="translate(-254.12 -440)"/></g></g><g id="Calque_5" data-name="Calque 5"><path class="cls-9" d="M291.9,485.17s3.3-25.5-25-19.94c0,0,21.75-5.9,24.6,10.31,0,0,7.18-5.51,20.17-.79,0,0-12.49-4-19.8,1.72C291.9,476.47,293,481.82,291.9,485.17Z" transform="translate(-254.12 -440)"/></g></g><g id="Calque_2" data-name="Calque 2"><path class="cls-3" d="M297,531.18V526.5a4.51,4.51,0,0,0-4.5-4.5h-9a4.51,4.51,0,0,0-4.5,4.5V531" transform="translate(-254.12 -440)"/><path class="cls-3" d="M286.22,522.74S282.39,519,282.3,512s6.59-15.42,6.77-21.12-5.79-13.28-5.79-13.28,6.23,6,6.59,13.1c0,0,1.61-5.25,5.88-7.21a24.58,24.58,0,0,0-6.24,10.33c-2,6.51-3.92,7.13-4.09,13.55s6.68,14.88,7.84,15.41" transform="translate(-254.12 -440)"/></g></svg>